<svg xmlns="http://www.w3.org/2000/svg" viewBox="0 0 659.11 419.86"><defs><style>.cls-1{fill:#f56725;}</style></defs><g id="Camada_2" data-name="Camada 2"><g id="Camada_2-2" data-name="Camada 2"><path class="cls-1" d="M0,112.71c2.23-21,12.73-37.1,30.91-47.19A157.76,157.76,0,0,1,66.6,50.9c40.57-10.77,81.86-9.18,123.13-4.76,4.82.52,8.62-.15,12.68-3.23C309-38,461.68-.37,518.51,120.85c5.37,11.44,8.51,23.91,13.08,35.76,1.16,3,3.22,6.39,5.85,8,26,16.09,50.93,33.54,73.42,54.27,17,15.65,32.18,32.79,41.52,54.29,10.39,23.9,9.34,46.88-7.29,67.7-12.06,15.1-29,22.72-47.15,27.88-32.61,9.27-66,9.4-99.41,7.53-10.61-.59-21.17-2.05-31.79-2.56a14.79,14.79,0,0,0-9.06,2.64c-38.53,29.43-82,44.38-130.43,43.44C238.32,418.1,155,361.12,129.31,270.1,126.61,260.57,122,255,113.94,250c-32.81-20.3-63.29-43.51-87.68-73.89a132.47,132.47,0,0,1-25-48.45ZM499.3,333.55c13.92,2.72,56.86,2.38,71.84-1.07,9.3-2.13,18.76-4.33,27.47-8.09,16.45-7.11,21.45-21.45,13.77-37.71a85,85,0,0,0-10.17-16.42c-19.47-24.6-44.58-42.77-70.73-59.24-82-51.62-170.86-86.64-265.13-108.23C215.8,91.21,164.77,83.3,112.66,85.59,94.89,86.37,77.24,88.28,61,96.4c-16.6,8.29-21.17,21.92-13,38.5a54.2,54.2,0,0,0,3.56,6.59c17.77,26.07,43,43.8,68.75,62.18.32-2.66.66-4.45.74-6.24,1.17-26.62,8.16-51.75,19.12-75.93,1.57-3.46,3.37-4.7,7-4.31,21.14,2.27,42.44,3.43,63.39,6.77,79,12.57,154.26,37.29,226.61,71,32.77,15.28,64.26,32.91,93.6,54.19,2.42,1.75,4.57,3,3.64,6.9-4.28,17.71-9.65,35-18.74,50.89C510.52,316,504.81,324.64,499.3,333.55Z"/></g></g></svg>