<svg xmlns="http://www.w3.org/2000/svg" viewBox="0 0 961.68 961.68"><defs><style>.cls-1{fill:#0f232e;}.cls-2{fill:#f56725;}</style></defs><g id="Camada_2" data-name="Camada 2"><g id="Camada_1-2" data-name="Camada 1"><rect class="cls-1" width="961.68" height="961.68" rx="480.84"/></g><g id="Camada_2-2" data-name="Camada 2"><path class="cls-2" d="M150.88,383.27c2.23-21,12.73-37.1,30.91-47.19a157.76,157.76,0,0,1,35.69-14.62c40.57-10.77,81.86-9.17,123.13-4.75,4.81.51,8.62-.16,12.68-3.24,106.54-80.87,259.26-43.27,316.1,77.94,5.37,11.44,8.51,23.92,13.08,35.76,1.16,3,3.22,6.39,5.85,8,26,16.09,50.93,33.55,73.42,54.28,17,15.64,32.18,32.78,41.52,54.29,10.39,23.9,9.34,46.87-7.29,67.7-12.06,15.1-29,22.71-47.15,27.87-32.61,9.28-66,9.4-99.41,7.54-10.61-.6-21.17-2-31.79-2.57a14.86,14.86,0,0,0-9.06,2.64c-38.53,29.44-82,44.38-130.43,43.44-88.93-1.72-172.22-58.7-197.94-149.71-2.7-9.54-7.3-15.08-15.38-20.08-32.8-20.3-63.29-43.5-87.67-73.88a132.55,132.55,0,0,1-25-48.45Zm499.3,220.84c13.92,2.72,56.86,2.38,71.84-1.06,9.3-2.14,18.76-4.34,27.47-8.1,16.45-7.1,21.45-21.44,13.77-37.7a84.75,84.75,0,0,0-10.17-16.43c-19.47-24.59-44.58-42.76-70.74-59.23-82-51.62-170.85-86.65-265.12-108.24-50.56-11.58-101.58-19.49-153.69-17.19-17.77.78-35.42,2.69-51.68,10.81-16.6,8.29-21.17,21.92-13,38.49a55.08,55.08,0,0,0,3.56,6.6c17.77,26.07,43,43.79,68.75,62.18.32-2.67.66-4.45.74-6.25,1.17-26.62,8.15-51.75,19.12-75.92,1.57-3.46,3.37-4.71,7-4.32,21.13,2.27,42.43,3.44,63.39,6.77,79,12.57,154.26,37.29,226.61,71,32.77,15.27,64.26,32.9,93.59,54.18,2.42,1.76,4.58,3,3.64,6.9-4.27,17.71-9.64,35-18.73,50.89C661.39,586.52,655.68,595.2,650.18,604.11Z"/></g></g></svg>